<?xml version="1.0" encoding="UTF-8"?> <svg xmlns="http://www.w3.org/2000/svg" width="24" height="16" viewBox="0 0 24 16" fill="none"> <path d="M0 2C0 0.895431 0.895431 0 2 0H22C23.1046 0 24 0.895431 24 2V14C24 15.1046 23.1046 16 22 16H2C0.89543 16 0 15.1046 0 14V2Z" fill="#312056"></path> <path d="M14.504 3.26369L9.33949 3.28145L9.49599 12.7364L14.6605 12.7186L14.504 3.26369Z" fill="#FF5F00"></path> <path d="M9.6794 8.02798C9.64745 6.10492 10.5089 4.39621 11.8582 3.28786C10.8397 2.48864 9.56289 2.00804 8.17874 2.01278C4.89962 2.02401 2.29141 4.72537 2.34671 8.05309C2.40201 11.3808 5.09971 14.064 8.37882 14.0528C9.76297 14.048 11.0237 13.5587 12.0155 12.7526C10.6298 11.6704 9.71136 9.95103 9.6794 8.02798Z" fill="#EB001B"></path> <path d="M21.6533 7.94694C21.7086 11.2747 19.1004 13.976 15.8213 13.9873C14.4371 13.992 13.1602 13.5114 12.1417 12.7122C13.5076 11.6038 14.3525 9.89511 14.3206 7.97206C14.2886 6.049 13.3705 4.34639 11.9845 3.24741C12.9763 2.4413 14.237 1.95201 15.6212 1.94726C18.9003 1.93603 21.5983 4.63595 21.6533 7.94694Z" fill="#F79E1B"></path> </svg> 