<?xml version="1.0" encoding="UTF-8"?> <svg xmlns="http://www.w3.org/2000/svg" width="24" height="16" viewBox="0 0 24 16" fill="none"> <path d="M0 2C0 0.895431 0.895431 0 2 0H22C23.1046 0 24 0.895431 24 2V14C24 15.1046 23.1046 16 22 16H2C0.89543 16 0 15.1046 0 14V2Z" fill="#312056"></path> <path fill-rule="evenodd" clip-rule="evenodd" d="M14.0318 7.03814C13.5142 7.15087 13.0929 7.49166 12.938 7.92294C12.8729 8.10404 12.8638 8.18213 12.8774 8.4408C12.8964 8.80216 12.9717 9.00419 13.1715 9.22982C13.3583 9.44068 13.573 9.5766 13.8729 9.67373C14.2258 9.78802 14.857 9.7867 15.176 9.67101C15.4503 9.57148 15.6394 9.45604 15.8097 9.28406C16.2436 8.84568 16.2778 8.08663 15.8877 7.55325C15.7678 7.38935 15.4385 7.17298 15.1823 7.08981C14.8918 6.9955 14.3412 6.97078 14.0318 7.03814ZM2.02231 7.08013C2.01003 7.09287 2 7.24953 2 7.42827V7.75319H2.55184H3.10368V8.72797V9.70276H3.50502H3.90635V8.72797V7.75319H4.45819H5.01003V7.40505V7.05691H3.52732C2.71181 7.05691 2.03455 7.06735 2.02231 7.08013ZM5.27759 8.36038C5.27759 9.0773 5.2889 9.67098 5.30268 9.67972C5.31645 9.68846 5.49709 9.68717 5.70401 9.67683L6.08027 9.6581V8.35749V7.05691H5.67893H5.27759V8.36038ZM6.64883 8.37984V9.70276H7H7.35117V8.96328V8.2238L8.04545 8.94587L8.7397 9.66795H9.08224H9.42475V8.36243V7.05691H9.05686H8.68896V7.77059C8.68896 8.16312 8.68371 8.48428 8.67729 8.48428C8.66438 8.48428 8.09261 7.87733 7.63605 7.37894L7.34104 7.05691H6.99492H6.64883V8.37984ZM9.97512 7.10056C9.96625 7.12459 9.96298 7.716 9.96779 8.41479L9.97659 9.68536L10.3528 9.69521L10.7291 9.70506V9.19911V8.69316H10.84C10.9385 8.69316 11.0044 8.7497 11.4292 9.19796L11.9074 9.70276H12.4129H12.9184L12.6168 9.38074C12.451 9.20364 12.1619 8.89421 11.9743 8.69316L11.6334 8.32762L12.2428 7.69226L12.8522 7.05691H12.3718H11.8913L11.4218 7.56349C10.9956 8.02338 10.9428 8.06912 10.8491 8.05958L10.7458 8.0491L10.7366 7.55301L10.7273 7.05691H10.3592C10.095 7.05691 9.98669 7.06923 9.97512 7.10056ZM16.5565 8.37113L16.5652 9.68536L16.9415 9.69521L17.3177 9.70506V9.23393V8.76279H18.1706H19.0234V8.48428V8.20577H18.1706H17.3177V7.96207V7.71837H18.204H19.0903V7.38764V7.05691H17.819H16.5477L16.5565 8.37113ZM19.4582 8.38098V9.70506L19.8344 9.69521L20.2107 9.68536L20.22 9.22407L20.2294 8.76279H21.0812H21.9331V8.48428V8.20577H21.0803H20.2274V7.96207V7.71837H21.1137H22V7.38764V7.05691H20.7291H19.4582V8.38098ZM15.0078 7.75608C15.0821 7.79952 15.1821 7.89401 15.23 7.966C15.4851 8.3491 15.3647 8.81926 14.9586 9.02605C14.615 9.20106 14.1395 9.14874 13.8938 8.9089C13.5307 8.55453 13.6463 7.89968 14.1051 7.71124C14.3633 7.60519 14.7858 7.62618 15.0078 7.75608Z" fill="white"></path> </svg> 